<?xml version="1.0" encoding="UTF-8" standalone="no"?>
<!DOCTYPE svg PUBLIC "-//W3C//DTD SVG 1.0//EN"
 "http://www.w3.org/TR/2001/REC-SVG-20010904/DTD/svg10.dtd" [
 <!ATTLIST svg xmlns:xlink CDATA #FIXED "http://www.w3.org/1999/xlink">
]>
<!-- Generated by libgvc version 2.20.2 (Wed Sep 16 11:12:21 UTC 2009)
     For user: (bob) Vladimir Rutsky,,,, -->
<!-- Title: graphname Pages: 1 -->
<svg width="326pt" height="332pt"
 viewBox="0.00 0.00 326.00 332.00" xmlns="http://www.w3.org/2000/svg" xmlns:xlink="http://www.w3.org/1999/xlink">
<g id="graph0" class="graph" transform="scale(1 1) rotate(0) translate(4 328)">
<title>graphname</title>
<polygon style="fill:white;stroke:white;" points="-4,4 -4,-328 322,-328 322,4 -4,4"/>
<!-- E1 -->
<g id="node1" class="node"><title>E1</title>
<ellipse style="fill:none;stroke:black;" cx="127" cy="-306" rx="27" ry="18"/>
<text text-anchor="middle" x="127" y="-301.9" style="font-family:Times New Roman;font-size:14.00;">E1</text>
</g>
<!-- E1&#45;&gt;E1 -->
<g id="edge22" class="edge"><title>E1&#45;&gt;E1</title>
<path style="fill:none;stroke:black;" d="M147,-318C160,-322 172,-318 172,-306 172,-297 166,-293 157,-293"/>
<polygon style="fill:black;stroke:black;" points="156.602,-289.522 147,-294 157.299,-296.488 156.602,-289.522"/>
</g>
<!-- &#39;+&#39; -->
<g id="node3" class="node"><title>&#39;+&#39;</title>
<ellipse style="fill:none;stroke:black;" cx="27" cy="-234" rx="27" ry="18"/>
<text text-anchor="middle" x="27" y="-229.9" style="font-family:Times New Roman;font-size:14.00;">&#39;+&#39;</text>
</g>
<!-- E1&#45;&gt;&#39;+&#39; -->
<g id="edge32" class="edge"><title>E1&#45;&gt;&#39;+&#39;</title>
<path style="fill:none;stroke:black;" d="M108,-292C93,-282 71,-266 54,-253"/>
<polygon style="fill:black;stroke:black;" points="55.262,-249.635 45,-247 51.3791,-255.459 55.262,-249.635"/>
</g>
<!-- e -->
<g id="node7" class="node"><title>e</title>
<ellipse style="fill:none;stroke:black;" cx="65" cy="-90" rx="27" ry="18"/>
<text text-anchor="middle" x="65" y="-85.9" style="font-family:Times New Roman;font-size:14.00;">e</text>
</g>
<!-- E1&#45;&gt;e -->
<g id="edge6" class="edge"><title>E1&#45;&gt;e</title>
<path style="fill:none;stroke:black;" d="M122,-288C111,-250 86,-162 73,-118"/>
<polygon style="fill:black;stroke:black;" points="76.2259,-116.573 70,-108 69.5212,-118.584 76.2259,-116.573"/>
</g>
<!-- T -->
<g id="node9" class="node"><title>T</title>
<ellipse style="fill:none;stroke:black;" cx="173" cy="-234" rx="27" ry="18"/>
<text text-anchor="middle" x="173" y="-229.9" style="font-family:Times New Roman;font-size:14.00;">T</text>
</g>
<!-- E1&#45;&gt;T -->
<g id="edge4" class="edge"><title>E1&#45;&gt;T</title>
<path style="fill:none;stroke:black;" d="M138,-289C143,-281 150,-269 156,-260"/>
<polygon style="fill:black;stroke:black;" points="159.365,-261.262 162,-251 153.541,-257.379 159.365,-261.262"/>
</g>
<!-- &#39;a&#39; -->
<g id="node2" class="node"><title>&#39;a&#39;</title>
<ellipse style="fill:none;stroke:black;" cx="75" cy="-18" rx="27" ry="18"/>
<text text-anchor="middle" x="75" y="-13.9" style="font-family:Times New Roman;font-size:14.00;">&#39;a&#39;</text>
</g>
<!-- &#39;*&#39; -->
<g id="node4" class="node"><title>&#39;*&#39;</title>
<ellipse style="fill:none;stroke:black;" cx="137" cy="-90" rx="27" ry="18"/>
<text text-anchor="middle" x="137" y="-85.9" style="font-family:Times New Roman;font-size:14.00;">&#39;*&#39;</text>
</g>
<!-- &#39;(&#39; -->
<g id="node5" class="node"><title>&#39;(&#39;</title>
<ellipse style="fill:none;stroke:black;" cx="147" cy="-18" rx="27" ry="18"/>
<text text-anchor="middle" x="147" y="-13.9" style="font-family:Times New Roman;font-size:14.00;">&#39;(&#39;</text>
</g>
<!-- &#39;)&#39; -->
<g id="node6" class="node"><title>&#39;)&#39;</title>
<ellipse style="fill:none;stroke:black;" cx="219" cy="-18" rx="27" ry="18"/>
<text text-anchor="middle" x="219" y="-13.9" style="font-family:Times New Roman;font-size:14.00;">&#39;)&#39;</text>
</g>
<!-- F -->
<g id="node8" class="node"><title>F</title>
<ellipse style="fill:none;stroke:black;" cx="209" cy="-90" rx="27" ry="18"/>
<text text-anchor="middle" x="209" y="-85.9" style="font-family:Times New Roman;font-size:14.00;">F</text>
</g>
<!-- F&#45;&gt;&#39;a&#39; -->
<g id="edge14" class="edge"><title>F&#45;&gt;&#39;a&#39;</title>
<path style="fill:none;stroke:black;" d="M188,-79C166,-67 130,-48 105,-34"/>
<polygon style="fill:black;stroke:black;" points="106.441,-30.7969 96,-29 103.042,-36.916 106.441,-30.7969"/>
</g>
<!-- F&#45;&gt;&#39;(&#39; -->
<g id="edge28" class="edge"><title>F&#45;&gt;&#39;(&#39;</title>
<path style="fill:none;stroke:black;" d="M196,-74C187,-64 177,-52 168,-42"/>
<polygon style="fill:black;stroke:black;" points="170.219,-39.221 161,-34 164.951,-43.8306 170.219,-39.221"/>
</g>
<!-- F&#45;&gt;&#39;)&#39; -->
<g id="edge20" class="edge"><title>F&#45;&gt;&#39;)&#39;</title>
<path style="fill:none;stroke:black;" d="M212,-72C213,-64 214,-55 215,-46"/>
<polygon style="fill:black;stroke:black;" points="218.488,-46.2987 216,-36 211.522,-45.6021 218.488,-46.2987"/>
</g>
<!-- E -->
<g id="node10" class="node"><title>E</title>
<ellipse style="fill:none;stroke:black;" cx="291" cy="-18" rx="27" ry="18"/>
<text text-anchor="middle" x="291" y="-13.9" style="font-family:Times New Roman;font-size:14.00;">E</text>
</g>
<!-- F&#45;&gt;E -->
<g id="edge2" class="edge"><title>F&#45;&gt;E</title>
<path style="fill:none;stroke:black;" d="M226,-75C238,-65 254,-51 267,-39"/>
<polygon style="fill:black;stroke:black;" points="269.779,-41.2191 275,-32 265.169,-35.9511 269.779,-41.2191"/>
</g>
<!-- T&#45;&gt;F -->
<g id="edge16" class="edge"><title>T&#45;&gt;F</title>
<path style="fill:none;stroke:black;" d="M179,-216C183,-206 188,-192 191,-180 196,-159 201,-136 204,-118"/>
<polygon style="fill:black;stroke:black;" points="207.471,-118.492 206,-108 200.607,-117.119 207.471,-118.492"/>
</g>
<!-- T1 -->
<g id="node11" class="node"><title>T1</title>
<ellipse style="fill:none;stroke:black;" cx="137" cy="-162" rx="27" ry="18"/>
<text text-anchor="middle" x="137" y="-157.9" style="font-family:Times New Roman;font-size:14.00;">T1</text>
</g>
<!-- T&#45;&gt;T1 -->
<g id="edge10" class="edge"><title>T&#45;&gt;T1</title>
<path style="fill:none;stroke:black;" d="M164,-217C160,-208 155,-198 150,-188"/>
<polygon style="fill:black;stroke:black;" points="153.26,-186.717 146,-179 146.863,-189.56 153.26,-186.717"/>
</g>
<!-- E&#45;&gt;E1 -->
<g id="edge26" class="edge"><title>E&#45;&gt;E1</title>
<path style="fill:none;stroke:black;" d="M289,-36C283,-78 263,-184 209,-252 195,-268 175,-281 158,-291"/>
<polygon style="fill:black;stroke:black;" points="156.042,-288.084 149,-296 159.441,-294.203 156.042,-288.084"/>
</g>
<!-- E&#45;&gt;T -->
<g id="edge12" class="edge"><title>E&#45;&gt;T</title>
<path style="fill:none;stroke:black;" d="M282,-35C267,-65 235,-128 206,-180 200,-189 194,-199 188,-208"/>
<polygon style="fill:black;stroke:black;" points="184.797,-206.559 183,-217 190.916,-209.958 184.797,-206.559"/>
</g>
<!-- T1&#45;&gt;&#39;*&#39; -->
<g id="edge30" class="edge"><title>T1&#45;&gt;&#39;*&#39;</title>
<path style="fill:none;stroke:black;" d="M137,-144C137,-136 137,-127 137,-118"/>
<polygon style="fill:black;stroke:black;" points="140.5,-118 137,-108 133.5,-118 140.5,-118"/>
</g>
<!-- T1&#45;&gt;e -->
<g id="edge8" class="edge"><title>T1&#45;&gt;e</title>
<path style="fill:none;stroke:black;" d="M122,-147C112,-137 99,-124 87,-112"/>
<polygon style="fill:black;stroke:black;" points="89.546,-109.596 80,-105 84.5962,-114.546 89.546,-109.596"/>
</g>
<!-- T1&#45;&gt;F -->
<g id="edge18" class="edge"><title>T1&#45;&gt;F</title>
<path style="fill:none;stroke:black;" d="M152,-147C162,-137 175,-124 187,-112"/>
<polygon style="fill:black;stroke:black;" points="189.404,-114.546 194,-105 184.454,-109.596 189.404,-114.546"/>
</g>
<!-- T1&#45;&gt;T1 -->
<g id="edge24" class="edge"><title>T1&#45;&gt;T1</title>
<path style="fill:none;stroke:black;" d="M157,-174C170,-178 182,-174 182,-162 182,-153 176,-149 167,-149"/>
<polygon style="fill:black;stroke:black;" points="166.602,-145.522 157,-150 167.299,-152.488 166.602,-145.522"/>
</g>
</g>
</svg>
