<?xml version="1.0" encoding="UTF-8" standalone="no"?>
<!DOCTYPE svg PUBLIC "-//W3C//DTD SVG 1.0//EN"
 "http://www.w3.org/TR/2001/REC-SVG-20010904/DTD/svg10.dtd" [
 <!ATTLIST svg xmlns:xlink CDATA #FIXED "http://www.w3.org/1999/xlink">
]>
<!-- Generated by libgvc version 2.20.2 (Wed Sep 16 11:12:21 UTC 2009)
     For user: (bob) Vladimir Rutsky,,,, -->
<!-- Title: productions_tree Pages: 1 -->
<svg width="386pt" height="404pt"
 viewBox="0.00 0.00 386.00 404.00" xmlns="http://www.w3.org/2000/svg" xmlns:xlink="http://www.w3.org/1999/xlink">
<g id="graph0" class="graph" transform="scale(1 1) rotate(0) translate(4 400)">
<title>productions_tree</title>
<polygon style="fill:white;stroke:white;" points="-4,4 -4,-400 382,-400 382,4 -4,4"/>
<!-- N30877520 -->
<g id="node1" class="node"><title>N30877520</title>
<ellipse style="fill:none;stroke:black;" cx="27" cy="-162" rx="27" ry="18"/>
<text text-anchor="middle" x="27" y="-157.9" style="font-family:Times New Roman;font-size:14.00;">&#39;a&#39;</text>
</g>
<!-- N30877264 -->
<g id="node2" class="node"><title>N30877264</title>
<ellipse style="fill:none;stroke:black;" cx="99" cy="-306" rx="27" ry="18"/>
<text text-anchor="middle" x="99" y="-301.9" style="font-family:Times New Roman;font-size:14.00;">T</text>
</g>
<!-- N30877328 -->
<g id="node16" class="node"><title>N30877328</title>
<ellipse style="fill:none;stroke:black;" cx="27" cy="-234" rx="27" ry="18"/>
<text text-anchor="middle" x="27" y="-229.9" style="font-family:Times New Roman;font-size:14.00;">F</text>
</g>
<!-- N30877264&#45;&gt;N30877328 -->
<g id="edge6" class="edge"><title>N30877264&#45;&gt;N30877328</title>
<path style="fill:none;stroke:black;" d="M84,-291C74,-281 61,-268 49,-256"/>
<polygon style="fill:black;stroke:black;" points="51.546,-253.596 42,-249 46.5962,-258.546 51.546,-253.596"/>
</g>
<!-- N30877456 -->
<g id="node19" class="node"><title>N30877456</title>
<ellipse style="fill:none;stroke:black;" cx="99" cy="-234" rx="27" ry="18"/>
<text text-anchor="middle" x="99" y="-229.9" style="font-family:Times New Roman;font-size:14.00;">T1</text>
</g>
<!-- N30877264&#45;&gt;N30877456 -->
<g id="edge8" class="edge"><title>N30877264&#45;&gt;N30877456</title>
<path style="fill:none;stroke:black;" d="M99,-288C99,-280 99,-271 99,-262"/>
<polygon style="fill:black;stroke:black;" points="102.5,-262 99,-252 95.5001,-262 102.5,-262"/>
</g>
<!-- N30877584 -->
<g id="node3" class="node"><title>N30877584</title>
<ellipse style="fill:none;stroke:black;" cx="99" cy="-162" rx="27" ry="18"/>
<text text-anchor="middle" x="99" y="-157.9" style="font-family:Times New Roman;font-size:14.00;">e</text>
</g>
<!-- N30877648 -->
<g id="node4" class="node"><title>N30877648</title>
<ellipse style="fill:none;stroke:black;" cx="171" cy="-234" rx="27" ry="18"/>
<text text-anchor="middle" x="171" y="-229.9" style="font-family:Times New Roman;font-size:14.00;">&#39;+&#39;</text>
</g>
<!-- N30877712 -->
<g id="node5" class="node"><title>N30877712</title>
<ellipse style="fill:none;stroke:black;" cx="243" cy="-234" rx="27" ry="18"/>
<text text-anchor="middle" x="243" y="-229.9" style="font-family:Times New Roman;font-size:14.00;">T</text>
</g>
<!-- N30877840 -->
<g id="node7" class="node"><title>N30877840</title>
<ellipse style="fill:none;stroke:black;" cx="171" cy="-162" rx="27" ry="18"/>
<text text-anchor="middle" x="171" y="-157.9" style="font-family:Times New Roman;font-size:14.00;">F</text>
</g>
<!-- N30877712&#45;&gt;N30877840 -->
<g id="edge20" class="edge"><title>N30877712&#45;&gt;N30877840</title>
<path style="fill:none;stroke:black;" d="M228,-219C218,-209 205,-196 193,-184"/>
<polygon style="fill:black;stroke:black;" points="195.546,-181.596 186,-177 190.596,-186.546 195.546,-181.596"/>
</g>
<!-- N30877904 -->
<g id="node8" class="node"><title>N30877904</title>
<ellipse style="fill:none;stroke:black;" cx="243" cy="-162" rx="27" ry="18"/>
<text text-anchor="middle" x="243" y="-157.9" style="font-family:Times New Roman;font-size:14.00;">T1</text>
</g>
<!-- N30877712&#45;&gt;N30877904 -->
<g id="edge22" class="edge"><title>N30877712&#45;&gt;N30877904</title>
<path style="fill:none;stroke:black;" d="M243,-216C243,-208 243,-199 243,-190"/>
<polygon style="fill:black;stroke:black;" points="246.5,-190 243,-180 239.5,-190 246.5,-190"/>
</g>
<!-- N30877776 -->
<g id="node6" class="node"><title>N30877776</title>
<ellipse style="fill:none;stroke:black;" cx="315" cy="-234" rx="27" ry="18"/>
<text text-anchor="middle" x="315" y="-229.9" style="font-family:Times New Roman;font-size:14.00;">E1</text>
</g>
<!-- N30878352 -->
<g id="node9" class="node"><title>N30878352</title>
<ellipse style="fill:none;stroke:black;" cx="315" cy="-162" rx="27" ry="18"/>
<text text-anchor="middle" x="315" y="-157.9" style="font-family:Times New Roman;font-size:14.00;">e</text>
</g>
<!-- N30877776&#45;&gt;N30878352 -->
<g id="edge36" class="edge"><title>N30877776&#45;&gt;N30878352</title>
<path style="fill:none;stroke:black;" d="M315,-216C315,-208 315,-199 315,-190"/>
<polygon style="fill:black;stroke:black;" points="318.5,-190 315,-180 311.5,-190 318.5,-190"/>
</g>
<!-- N30877968 -->
<g id="node10" class="node"><title>N30877968</title>
<ellipse style="fill:none;stroke:black;" cx="135" cy="-90" rx="27" ry="18"/>
<text text-anchor="middle" x="135" y="-85.9" style="font-family:Times New Roman;font-size:14.00;">&#39;a&#39;</text>
</g>
<!-- N30877840&#45;&gt;N30877968 -->
<g id="edge24" class="edge"><title>N30877840&#45;&gt;N30877968</title>
<path style="fill:none;stroke:black;" d="M162,-145C158,-136 153,-126 148,-116"/>
<polygon style="fill:black;stroke:black;" points="151.26,-114.717 144,-107 144.863,-117.56 151.26,-114.717"/>
</g>
<!-- N30878096 -->
<g id="node12" class="node"><title>N30878096</title>
<ellipse style="fill:none;stroke:black;" cx="279" cy="-90" rx="27" ry="18"/>
<text text-anchor="middle" x="279" y="-85.9" style="font-family:Times New Roman;font-size:14.00;">F</text>
</g>
<!-- N30877904&#45;&gt;N30878096 -->
<g id="edge28" class="edge"><title>N30877904&#45;&gt;N30878096</title>
<path style="fill:none;stroke:black;" d="M252,-145C256,-136 261,-126 266,-116"/>
<polygon style="fill:black;stroke:black;" points="269.137,-117.56 270,-107 262.74,-114.717 269.137,-117.56"/>
</g>
<!-- N30878160 -->
<g id="node13" class="node"><title>N30878160</title>
<ellipse style="fill:none;stroke:black;" cx="351" cy="-90" rx="27" ry="18"/>
<text text-anchor="middle" x="351" y="-85.9" style="font-family:Times New Roman;font-size:14.00;">T1</text>
</g>
<!-- N30877904&#45;&gt;N30878160 -->
<g id="edge30" class="edge"><title>N30877904&#45;&gt;N30878160</title>
<path style="fill:none;stroke:black;" d="M262,-149C279,-138 304,-121 324,-109"/>
<polygon style="fill:black;stroke:black;" points="326.1,-111.8 332,-103 321.9,-106.2 326.1,-111.8"/>
</g>
<!-- N30878032 -->
<g id="node17" class="node"><title>N30878032</title>
<ellipse style="fill:none;stroke:black;" cx="207" cy="-90" rx="27" ry="18"/>
<text text-anchor="middle" x="207" y="-85.9" style="font-family:Times New Roman;font-size:14.00;">&#39;*&#39;</text>
</g>
<!-- N30877904&#45;&gt;N30878032 -->
<g id="edge26" class="edge"><title>N30877904&#45;&gt;N30878032</title>
<path style="fill:none;stroke:black;" d="M234,-145C230,-136 225,-126 220,-116"/>
<polygon style="fill:black;stroke:black;" points="223.26,-114.717 216,-107 216.863,-117.56 223.26,-114.717"/>
</g>
<!-- N140112984845776 -->
<g id="node11" class="node"><title>N140112984845776</title>
<ellipse style="fill:none;stroke:black;" cx="135" cy="-378" rx="27" ry="18"/>
<text text-anchor="middle" x="135" y="-373.9" style="font-family:Times New Roman;font-size:14.00;">E</text>
</g>
<!-- N140112984845776&#45;&gt;N30877264 -->
<g id="edge2" class="edge"><title>N140112984845776&#45;&gt;N30877264</title>
<path style="fill:none;stroke:black;" d="M126,-361C122,-352 117,-342 112,-332"/>
<polygon style="fill:black;stroke:black;" points="115.26,-330.717 108,-323 108.863,-333.56 115.26,-330.717"/>
</g>
<!-- N30877392 -->
<g id="node18" class="node"><title>N30877392</title>
<ellipse style="fill:none;stroke:black;" cx="171" cy="-306" rx="27" ry="18"/>
<text text-anchor="middle" x="171" y="-301.9" style="font-family:Times New Roman;font-size:14.00;">E1</text>
</g>
<!-- N140112984845776&#45;&gt;N30877392 -->
<g id="edge4" class="edge"><title>N140112984845776&#45;&gt;N30877392</title>
<path style="fill:none;stroke:black;" d="M144,-361C148,-352 153,-342 158,-332"/>
<polygon style="fill:black;stroke:black;" points="161.137,-333.56 162,-323 154.74,-330.717 161.137,-333.56"/>
</g>
<!-- N30878224 -->
<g id="node14" class="node"><title>N30878224</title>
<ellipse style="fill:none;stroke:black;" cx="279" cy="-18" rx="27" ry="18"/>
<text text-anchor="middle" x="279" y="-13.9" style="font-family:Times New Roman;font-size:14.00;">&#39;a&#39;</text>
</g>
<!-- N30878096&#45;&gt;N30878224 -->
<g id="edge32" class="edge"><title>N30878096&#45;&gt;N30878224</title>
<path style="fill:none;stroke:black;" d="M279,-72C279,-64 279,-55 279,-46"/>
<polygon style="fill:black;stroke:black;" points="282.5,-46 279,-36 275.5,-46 282.5,-46"/>
</g>
<!-- N30878288 -->
<g id="node15" class="node"><title>N30878288</title>
<ellipse style="fill:none;stroke:black;" cx="351" cy="-18" rx="27" ry="18"/>
<text text-anchor="middle" x="351" y="-13.9" style="font-family:Times New Roman;font-size:14.00;">e</text>
</g>
<!-- N30878160&#45;&gt;N30878288 -->
<g id="edge34" class="edge"><title>N30878160&#45;&gt;N30878288</title>
<path style="fill:none;stroke:black;" d="M351,-72C351,-64 351,-55 351,-46"/>
<polygon style="fill:black;stroke:black;" points="354.5,-46 351,-36 347.5,-46 354.5,-46"/>
</g>
<!-- N30877328&#45;&gt;N30877520 -->
<g id="edge10" class="edge"><title>N30877328&#45;&gt;N30877520</title>
<path style="fill:none;stroke:black;" d="M27,-216C27,-208 27,-199 27,-190"/>
<polygon style="fill:black;stroke:black;" points="30.5001,-190 27,-180 23.5001,-190 30.5001,-190"/>
</g>
<!-- N30877392&#45;&gt;N30877648 -->
<g id="edge14" class="edge"><title>N30877392&#45;&gt;N30877648</title>
<path style="fill:none;stroke:black;" d="M171,-288C171,-280 171,-271 171,-262"/>
<polygon style="fill:black;stroke:black;" points="174.5,-262 171,-252 167.5,-262 174.5,-262"/>
</g>
<!-- N30877392&#45;&gt;N30877712 -->
<g id="edge16" class="edge"><title>N30877392&#45;&gt;N30877712</title>
<path style="fill:none;stroke:black;" d="M186,-291C196,-281 209,-268 221,-256"/>
<polygon style="fill:black;stroke:black;" points="223.404,-258.546 228,-249 218.454,-253.596 223.404,-258.546"/>
</g>
<!-- N30877392&#45;&gt;N30877776 -->
<g id="edge18" class="edge"><title>N30877392&#45;&gt;N30877776</title>
<path style="fill:none;stroke:black;" d="M193,-295C217,-282 257,-263 284,-249"/>
<polygon style="fill:black;stroke:black;" points="285.283,-252.26 293,-245 282.44,-245.863 285.283,-252.26"/>
</g>
<!-- N30877456&#45;&gt;N30877584 -->
<g id="edge12" class="edge"><title>N30877456&#45;&gt;N30877584</title>
<path style="fill:none;stroke:black;" d="M99,-216C99,-208 99,-199 99,-190"/>
<polygon style="fill:black;stroke:black;" points="102.5,-190 99,-180 95.5001,-190 102.5,-190"/>
</g>
</g>
</svg>
